# xmcd
#
# Track frame offsets:
# 150
# 21598
# 41258
# 61355
# 86602
# 109167
# 132929
# 157868
# 187537
#
# Disc length: 2885 seconds
#
#
# Revision: 4
# Processed by: cddbd v1.4PL0 Copyright (c) Steve Scherf et al.
# Submitted via: FreeRIP 2.11 
#
DISCID=670b4309
DTITLE=Supertramp - Famous Last Words
DYEAR=1982
DGENRE=Rock
TTITLE0=Crazy
TTITLE1=Put On Your Old Brown Shoes
TTITLE2=It's Raining Again
TTITLE3=Bonnie
TTITLE4=Know Who You Are
TTITLE5=My Kind Of Lady
TTITLE6=C'est le Bon
TTITLE7=Waiting So Long
TTITLE8=Don't Leave Me Now
EXTD=YEAR: 1982 ID3G:  17
EXTT0=
EXTT1=
EXTT2=
EXTT3=
EXTT4=
EXTT5=
EXTT6=
EXTT7=
EXTT8=
PLAYORDER=
